<svg width="232" height="349" viewBox="0 0 232 349" fill="none" xmlns="http://www.w3.org/2000/svg">
<rect x="177" y="107" width="17" height="26" rx="8.5" fill="#FFC69B" stroke="#7E512F" stroke-width="2"/>
<rect x="33" y="107" width="17" height="26" rx="8.5" fill="#FFC69B" stroke="#7E512F" stroke-width="2"/>
<rect x="43" y="66.4303" width="140" height="101" rx="19" fill="#FFC69B" stroke="#7E512F" stroke-width="2"/>
<path d="M112 131C173.325 131 223 179.598 223 239.5C223 299.402 173.325 348 112 348C50.675 348 1 299.402 1 239.5C1 179.598 50.675 131 112 131Z" fill="white" stroke="#7E512F" stroke-width="2"/>
<path d="M114 121.43C121.329 121.43 127.915 122.973 132.632 125.419C137.398 127.89 140 131.128 140 134.43C140 137.732 137.398 140.97 132.632 143.442C127.915 145.888 121.329 147.43 114 147.43C106.671 147.43 100.085 145.888 95.3682 143.442C90.6016 140.97 88 137.732 88 134.43C88 131.128 90.6016 127.89 95.3682 125.419C100.085 122.973 106.671 121.43 114 121.43Z" fill="#FCB194" stroke="#41220B" stroke-width="2"/>
<circle cx="76" cy="110.43" r="4" fill="#573115"/>
<circle cx="150" cy="110.43" r="4" fill="#573115"/>
<path d="M105.5 142.941C103.5 159.941 102.5 192.941 90 197.441C90 214.641 89.1667 219.441 87 224.441C105.8 245.241 106 246.441 108.5 252.941C126.1 241.741 140.333 238.441 140.5 234.941L154.5 207.941C160.9 207.141 160.167 202.607 159 200.441L151.5 189.941C155 190.774 161.4 190.341 159 181.941C156.6 173.541 150.667 167.107 148 164.941H137.5C134.7 162.541 125 171.274 120.5 175.941C120.5 159.941 118 150.441 118 142.941C118 135.441 107.5 125.941 105.5 142.941Z" fill="#41220B"/>
<path d="M194.417 14.9373C95.7991 -22.2814 58.3815 23.7751 52 51.4556C71.6115 69.2979 123.442 73.4667 155.661 73.4667C198.555 73.4667 212.317 107.317 218.231 140C249.236 83.1715 216.83 23.3961 194.417 14.9373Z" fill="#E85454" stroke="#5D1515" stroke-width="2"/>
<path d="M183 91.0001C159.094 64.4085 60.7895 70.4292 42.8597 91.0001C38.5003 78.5001 44.5 54.5013 51.0001 51.5001C79.156 38.5001 137 36.5001 176.5 52.5001C187.457 58.5909 185.657 85.4811 183 91.0001Z" fill="white" stroke="#7E512F" stroke-width="2"/>
<circle cx="217" cy="140" r="13" fill="white" stroke="#141414" stroke-width="2"/>
<path d="M69.6229 85.3989C73.4625 84.208 77.1342 83.9271 79.9466 84.3931C82.8239 84.8698 84.4839 86.0535 84.9273 87.483C85.3707 88.9125 84.6719 90.8278 82.5694 92.8492C80.5144 94.8248 77.3282 96.6711 73.4886 97.862C69.649 99.0529 65.9773 99.3338 63.165 98.8679C60.2876 98.3911 58.6276 97.2075 58.1842 95.7779C57.7408 94.3484 58.4396 92.4331 60.5421 90.4118C62.5972 88.4361 65.7833 86.5899 69.6229 85.3989Z" fill="white" stroke="black" stroke-width="2"/>
<path d="M154.488 85.3989C150.649 84.208 146.977 83.9271 144.165 84.3931C141.287 84.8698 139.627 86.0535 139.184 87.483C138.741 88.9125 139.439 90.8278 141.542 92.8492C143.597 94.8248 146.783 96.6711 150.623 97.862C154.462 99.0529 158.134 99.3338 160.946 98.8679C163.824 98.3911 165.484 97.2075 165.927 95.7779C166.37 94.3484 165.672 92.4331 163.569 90.4118C161.514 88.4361 158.328 86.5899 154.488 85.3989Z" fill="white" stroke="black" stroke-width="2"/>
</svg>
